<svg width="200" height="100" viewBox="0 0 200 100" xmlns="http://www.w3.org/2000/svg">
  <!-- Cloud 1 -->
  <path fill="#ffffff" d="M 50 60 a 20 20 0 0 1 20 -20 a 30 30 0 0 1 50 0 a 20 20 0 0 1 20 20 a 25 25 0 0 1 -25 25 h -40 a 25 25 0 0 1 -25 -25 z" />
  <!-- Cloud 2 -->
  <path fill="#ffffff" d="M 150 40 a 15 15 0 0 1 15 -15 a 20 20 0 0 1 30 0 a 15 15 0 0 1 15 15 a 15 15 0 0 1 -15 15 h -30 a 15 15 0 0 1 -15 -15 z" />
  <!-- Cloud 3 (small) -->
  <path fill="#ffffff" d="M 20 80 a 10 10 0 0 1 10 -10 a 15 15 0 0 1 20 0 a 10 10 0 0 1 10 10 a 12 12 0 0 1 -12 12 h -16 a 12 12 0 0 1 -12 -12 z" />
</svg>
